<svg width="127" height="127" viewBox="0 0 127 127" fill="none" xmlns="http://www.w3.org/2000/svg">
<rect width="126.993" height="126.993" rx="63.4965" fill="#262526"/>
<path d="M84.6803 28.2349C78.2969 23.8737 69.2309 24.158 63.9439 31.7947C58.6163 24.1877 49.5475 23.9495 43.1886 28.3458C36.1447 33.2132 34.2849 42.5744 38.6109 49.8592C39.3634 51.1261 40.2541 52.3984 41.2395 53.6599C42.2709 53.2457 43.7083 52.9317 44.2064 52.7612L62.3359 46.5159C64.128 45.8933 65.7197 44.5262 66.743 42.7314C68.1697 40.2192 70.8362 38.0237 73.8735 36.857C79.0955 34.8564 84.3202 36.0069 85.0647 39.8402C85.2677 40.8987 85.0187 41.8705 84.5233 42.9425C84.1686 43.7059 82.9071 45.6307 82.2818 46.1938C78.1643 49.8998 75.403 50.8094 69.6559 50.1488C66.4019 49.1607 64.9157 49.9431 63.148 50.6875L45.2974 58.2512C51.253 64.3286 58.7544 69.6805 63.7761 72.458C63.9493 72.5555 64.1605 72.5528 64.3364 72.458C71.5779 68.4055 83.9737 58.9415 89.3771 49.7238C93.6597 42.4173 91.7512 33.067 84.683 28.2349H84.6803Z" fill="#DB483B"/>
<path d="M21.3883 81.2968C21.3883 77.9508 24.182 75.222 27.528 75.222C29.3147 75.222 30.7765 75.9042 31.8485 76.9438L30.5491 78.2432C29.802 77.431 28.7624 76.9438 27.528 76.9438C25.1241 76.9438 23.3374 78.8929 23.3374 81.2968C23.3374 83.7007 25.1241 85.6498 27.528 85.6498C28.73 85.6498 29.802 85.13 30.5491 84.3179L31.816 85.5848C30.7116 86.6893 29.1848 87.3715 27.528 87.3715C23.9222 87.3715 21.3883 84.9026 21.3883 81.2968Z" fill="#FEF7FF"/>
<path d="M33.4078 83.8307V80.4523H35.227V83.8307C35.227 84.8702 36.0067 85.6824 37.0462 85.6824C38.0857 85.6824 38.8653 84.8702 38.8653 83.8307V80.4523H40.6845V83.8307C40.6845 85.9423 38.8653 87.3716 37.0137 87.3716C34.9022 87.3716 33.4078 85.9423 33.4078 83.8307Z" fill="#FEF7FF"/>
<path d="M42.4387 83.8306C42.4387 81.8815 44.128 80.2897 46.0771 80.2897C47.0841 80.2897 47.8962 80.5821 48.6109 81.2968L47.409 82.4987C47.0516 82.1739 46.5968 81.979 46.0771 81.979C45.0375 81.979 44.2579 82.7586 44.2579 83.8306C44.2579 84.9026 45.0375 85.6823 46.0771 85.6823C46.5643 85.6823 47.0516 85.4549 47.3765 85.13L48.5784 86.2995C47.9287 86.9817 47.0191 87.3715 46.0771 87.3715C43.9655 87.3715 42.4387 85.9422 42.4387 83.8306Z" fill="#FEF7FF"/>
<path d="M50.4301 75.3842H52.2492V81.0366C52.639 80.5818 53.3862 80.2895 54.2308 80.2895C56.2774 80.2895 57.7067 81.7188 57.7067 83.8304V87.2088H55.8876V83.8304C55.8876 82.7583 55.1404 81.9787 54.0684 81.9787C52.9964 81.9787 52.2492 82.7583 52.2492 83.8304V87.2088H50.4301V75.3842Z" fill="#FEF7FF"/>
<path d="M59.1361 83.8306C59.1361 81.8815 60.8253 80.2897 62.7744 80.2897C64.886 80.2897 66.4128 81.7191 66.4128 83.8306V87.2091H64.6261V86.6243C64.2038 87.0791 63.4566 87.3715 62.612 87.3715C60.5655 87.3715 59.1361 85.9422 59.1361 83.8306ZM64.5936 83.8306C64.5936 82.7586 63.8465 81.979 62.7744 81.979C61.7024 81.979 60.9553 82.7586 60.9553 83.8306C60.9553 84.9026 61.7349 85.6823 62.7744 85.6823C63.814 85.6823 64.5936 84.8701 64.5936 83.8306Z" fill="#FEF7FF"/>
<path d="M68.167 82.9861C68.167 81.4918 69.239 80.4523 70.7008 80.4523H71.3505V82.1415H70.8308C70.3435 82.1415 69.9862 82.4663 69.9862 82.9861V87.2092H68.167V82.9861Z" fill="#FEF7FF"/>
<path d="M72.52 83.8306C72.52 81.8815 74.2092 80.2897 76.1584 80.2897C78.2699 80.2897 79.7967 81.7191 79.7967 83.8306V87.2091H78.01V86.6243C77.5877 87.0791 76.8405 87.3715 75.9959 87.3715C73.9494 87.3715 72.52 85.9422 72.52 83.8306ZM77.9775 83.8306C77.9775 82.7586 77.2304 81.979 76.1584 81.979C75.0863 81.979 74.3392 82.7586 74.3392 83.8306C74.3392 84.9026 75.1188 85.6823 76.1584 85.6823C77.1979 85.6823 77.9775 84.8701 77.9775 83.8306Z" fill="#FEF7FF"/>
<path d="M81.226 83.8304C81.226 81.8812 82.8503 80.2895 84.7669 80.2895C85.4491 80.2895 86.0988 80.4519 86.6835 80.8742V75.3842H88.5027V83.8304C88.5027 85.7795 86.8135 87.3712 84.8644 87.3712C82.7528 87.3712 81.226 85.9419 81.226 83.8304ZM86.6835 83.8304C86.6835 82.7583 85.9364 81.9787 84.8644 81.9787C83.7923 81.9787 83.0452 82.7583 83.0452 83.8304C83.0452 84.9024 83.8248 85.682 84.8644 85.682C85.9039 85.682 86.6835 84.8699 86.6835 83.8304Z" fill="#FEF7FF"/>
<path d="M90.127 83.8306C90.127 81.8815 91.8162 80.2897 93.7653 80.2897C95.8768 80.2897 97.4036 81.7191 97.4036 83.8306V87.2091H95.6169V86.6243C95.1946 87.0791 94.4475 87.3715 93.6029 87.3715C91.5563 87.3715 90.127 85.9422 90.127 83.8306ZM95.5845 83.8306C95.5845 82.7586 94.8373 81.979 93.7653 81.979C92.6933 81.979 91.9461 82.7586 91.9461 83.8306C91.9461 84.9026 92.7258 85.6823 93.7653 85.6823C94.8048 85.6823 95.5845 84.8701 95.5845 83.8306Z" fill="#FEF7FF"/>
<path d="M99.3527 85.6824H103.868C104.193 85.6824 104.42 85.455 104.42 85.1301C104.42 84.8378 104.193 84.6104 103.868 84.6104H101.237C100.1 84.6104 99.1578 83.7008 99.1578 82.5313C99.1578 81.4268 100.1 80.4523 101.237 80.4523H105.265V81.9791H101.399C101.107 81.9791 100.847 82.2065 100.847 82.4988C100.847 82.8237 101.074 83.0511 101.399 83.0511H104.031C105.168 83.0511 106.11 83.9282 106.11 85.1301C106.11 86.2021 105.168 87.2092 104.031 87.2092H99.3527V85.6824Z" fill="#FEF7FF"/>
<path d="M33.5865 98.0537C33.5865 96.1046 35.2107 94.5129 37.1274 94.5129C37.8096 94.5129 38.4593 94.6753 39.044 95.0976V89.6076H40.8632V98.0537C40.8632 100.003 39.1739 101.595 37.2248 101.595C35.1133 101.595 33.5865 100.165 33.5865 98.0537ZM39.044 98.0537C39.044 96.9817 38.2968 96.2021 37.2248 96.2021C36.1528 96.2021 35.4057 96.9817 35.4057 98.0537C35.4057 99.1258 36.1853 99.9054 37.2248 99.9054C38.2644 99.9054 39.044 99.0933 39.044 98.0537Z" fill="#FEF7FF"/>
<path d="M42.4874 98.0538C42.4874 96.1047 44.1767 94.5129 46.1258 94.5129C48.2373 94.5129 49.6342 95.8448 49.7641 98.0538V98.671H44.2741C44.5015 99.4832 45.2162 100.035 46.1258 100.035C46.7105 100.035 47.0354 99.873 47.5226 99.4182L48.6271 100.555C47.9774 101.205 47.1003 101.595 46.1258 101.595C44.0142 101.595 42.4874 100.165 42.4874 98.0538ZM47.9774 97.2742C47.7175 96.4945 47.0678 95.9748 46.1258 95.9748C45.1837 95.9748 44.5665 96.527 44.3066 97.2742H47.9774Z" fill="#FEF7FF"/>
<path d="M60.3055 89.6078H61.9948L67.0625 101.432H65.1783L64.4636 99.7432H57.8367L57.1545 101.432H55.2379L60.3055 89.6078ZM63.749 98.0539L61.1502 91.8168L58.5513 98.0539H63.749Z" fill="#FEF7FF"/>
<path d="M68.2969 98.0538C68.2969 95.9423 70.1161 94.5129 71.9678 94.5129C73.1372 94.5129 74.0793 94.9352 74.729 95.6499C75.4112 94.9352 76.4182 94.5129 77.4253 94.5129C79.5368 94.5129 81.0311 95.9423 81.0311 98.0538V101.432H79.212V98.0538C79.212 96.9818 78.4323 96.2022 77.3928 96.2022C76.3533 96.2022 75.5736 96.9818 75.5736 98.0538V101.432H73.7544V98.0538C73.7544 96.9818 73.0073 96.2022 71.9353 96.2022C70.8633 96.2022 70.1161 96.9818 70.1161 98.0538V101.432H68.2969V98.0538Z" fill="#FEF7FF"/>
<path d="M82.4604 98.0538C82.4604 96.1047 84.1497 94.5129 86.0988 94.5129C88.2103 94.5129 89.7371 95.9423 89.7371 98.0538C89.7371 100.003 88.0479 101.595 86.0988 101.595C83.9873 101.595 82.4604 100.165 82.4604 98.0538ZM87.918 98.0538C87.918 96.9818 87.1708 96.2022 86.0988 96.2022C85.0268 96.2022 84.2796 96.9818 84.2796 98.0538C84.2796 99.1258 85.0593 99.9055 86.0988 99.9055C87.1383 99.9055 87.918 99.0933 87.918 98.0538Z" fill="#FEF7FF"/>
<path d="M91.1665 97.2093C91.1665 95.715 92.2385 94.6755 93.7004 94.6755H94.3501V96.3647H93.8303C93.343 96.3647 92.9857 96.6896 92.9857 97.2093V101.432H91.1665V97.2093Z" fill="#FEF7FF"/>
</svg>
