<svg width="85" height="77" viewBox="0 0 85 77" fill="none" xmlns="http://www.w3.org/2000/svg">
<path d="M63.292 2.83618C56.9086 -1.52496 47.8425 -1.24071 42.5556 6.39601C37.228 -1.21094 28.1592 -1.44916 21.8003 2.94717C14.7564 7.81453 12.8966 17.1757 17.2226 24.4605C17.9751 25.7274 18.8658 26.9997 19.8512 28.2612C20.8826 27.8471 22.32 27.533 22.8181 27.3625L40.9476 21.1172C42.7397 20.4946 44.3314 19.1275 45.3547 17.3327C46.7814 14.8205 49.4479 12.625 52.4852 11.4583C57.7072 9.45774 62.9319 10.6083 63.6764 14.4415C63.8794 15.5 63.6303 16.4718 63.1349 17.5438C62.7803 18.3072 61.5188 20.232 60.8935 20.7951C56.776 24.5011 54.0147 25.4107 48.2676 24.7501C45.0136 23.7621 43.5274 24.5444 41.7597 25.2889L23.9091 32.8525C29.8647 38.9299 37.3661 44.2819 42.3877 47.0593C42.561 47.1568 42.7722 47.1541 42.9481 47.0593C50.1896 43.0068 62.5854 33.5428 67.9888 24.3251C72.2714 17.0187 70.3629 7.66835 63.2947 2.83618H63.292Z" fill="#262526"/>
<path d="M0 55.8981C0 52.5521 2.79373 49.8234 6.1397 49.8234C7.92638 49.8234 9.38822 50.5056 10.4602 51.5451L9.16082 52.8445C8.41366 52.0324 7.37414 51.5451 6.1397 51.5451C3.7358 51.5451 1.94911 53.4942 1.94911 55.8981C1.94911 58.302 3.7358 60.2511 6.1397 60.2511C7.34165 60.2511 8.41366 59.7313 9.16082 58.9192L10.4277 60.1861C9.32325 61.2906 7.79644 61.9728 6.1397 61.9728C2.53384 61.9728 0 59.504 0 55.8981Z" fill="#262526"/>
<path d="M12.0195 58.4322V55.0537H13.8387V58.4322C13.8387 59.4717 14.6183 60.2838 15.6579 60.2838C16.6974 60.2838 17.477 59.4717 17.477 58.4322V55.0537H19.2962V58.4322C19.2962 60.5437 17.477 61.9731 15.6254 61.9731C13.5139 61.9731 12.0195 60.5437 12.0195 58.4322Z" fill="#262526"/>
<path d="M21.0504 58.4321C21.0504 56.4829 22.7396 54.8912 24.6888 54.8912C25.6958 54.8912 26.5079 55.1835 27.2226 55.8982L26.0206 57.1002C25.6633 56.7753 25.2085 56.5804 24.6888 56.5804C23.6492 56.5804 22.8696 57.36 22.8696 58.4321C22.8696 59.5041 23.6492 60.2837 24.6888 60.2837C25.176 60.2837 25.6633 60.0563 25.9882 59.7315L27.1901 60.9009C26.5404 61.5831 25.6308 61.9729 24.6888 61.9729C22.5772 61.9729 21.0504 60.5436 21.0504 58.4321Z" fill="#262526"/>
<path d="M29.0417 49.9857H30.8609V55.6381C31.2507 55.1833 31.9979 54.8909 32.8425 54.8909C34.8891 54.8909 36.3184 56.3203 36.3184 58.4318V61.8103H34.4993V58.4318C34.4993 57.3598 33.7521 56.5801 32.6801 56.5801C31.6081 56.5801 30.8609 57.3598 30.8609 58.4318V61.8103H29.0417V49.9857Z" fill="#262526"/>
<path d="M37.7478 58.4321C37.7478 56.4829 39.437 54.8912 41.3861 54.8912C43.4977 54.8912 45.0245 56.3205 45.0245 58.4321V61.8105H43.2378V61.2258C42.8155 61.6806 42.0683 61.9729 41.2237 61.9729C39.1771 61.9729 37.7478 60.5436 37.7478 58.4321ZM43.2053 58.4321C43.2053 57.36 42.4582 56.5804 41.3861 56.5804C40.3141 56.5804 39.567 57.36 39.567 58.4321C39.567 59.5041 40.3466 60.2837 41.3861 60.2837C42.4257 60.2837 43.2053 59.4716 43.2053 58.4321Z" fill="#262526"/>
<path d="M46.7787 57.5876C46.7787 56.0932 47.8507 55.0537 49.3125 55.0537H49.9622V56.7429H49.4425C48.9552 56.7429 48.5979 57.0678 48.5979 57.5876V61.8106H46.7787V57.5876Z" fill="#262526"/>
<path d="M51.1317 58.4321C51.1317 56.4829 52.8209 54.8912 54.7701 54.8912C56.8816 54.8912 58.4084 56.3205 58.4084 58.4321V61.8105H56.6217V61.2258C56.1994 61.6806 55.4522 61.9729 54.6076 61.9729C52.5611 61.9729 51.1317 60.5436 51.1317 58.4321ZM56.5892 58.4321C56.5892 57.36 55.8421 56.5804 54.7701 56.5804C53.698 56.5804 52.9509 57.36 52.9509 58.4321C52.9509 59.5041 53.7305 60.2837 54.7701 60.2837C55.8096 60.2837 56.5892 59.4716 56.5892 58.4321Z" fill="#262526"/>
<path d="M59.8377 58.4318C59.8377 56.4827 61.462 54.8909 63.3786 54.8909C64.0608 54.8909 64.7105 55.0533 65.2952 55.4757V49.9857H67.1144V58.4318C67.1144 60.3809 65.4252 61.9727 63.476 61.9727C61.3645 61.9727 59.8377 60.5433 59.8377 58.4318ZM65.2952 58.4318C65.2952 57.3598 64.5481 56.5801 63.476 56.5801C62.404 56.5801 61.6569 57.3598 61.6569 58.4318C61.6569 59.5038 62.4365 60.2835 63.476 60.2835C64.5156 60.2835 65.2952 59.4713 65.2952 58.4318Z" fill="#262526"/>
<path d="M68.7386 58.4321C68.7386 56.4829 70.4279 54.8912 72.377 54.8912C74.4885 54.8912 76.0153 56.3205 76.0153 58.4321V61.8105H74.2286V61.2258C73.8063 61.6806 73.0592 61.9729 72.2146 61.9729C70.168 61.9729 68.7386 60.5436 68.7386 58.4321ZM74.1962 58.4321C74.1962 57.36 73.449 56.5804 72.377 56.5804C71.305 56.5804 70.5578 57.36 70.5578 58.4321C70.5578 59.5041 71.3375 60.2837 72.377 60.2837C73.4165 60.2837 74.1962 59.4716 74.1962 58.4321Z" fill="#262526"/>
<path d="M77.9644 60.2838H82.4799C82.8047 60.2838 83.0321 60.0564 83.0321 59.7316C83.0321 59.4392 82.8047 59.2118 82.4799 59.2118H79.8486C78.7116 59.2118 77.7695 58.3022 77.7695 57.1328C77.7695 56.0283 78.7116 55.0537 79.8486 55.0537H83.8767V56.5805H80.011C79.7186 56.5805 79.4588 56.8079 79.4588 57.1003C79.4588 57.4251 79.6862 57.6525 80.011 57.6525H82.6423C83.7793 57.6525 84.7214 58.5296 84.7214 59.7316C84.7214 60.8036 83.7793 61.8106 82.6423 61.8106H77.9644V60.2838Z" fill="#262526"/>
<path d="M12.1982 72.6552C12.1982 70.7061 13.8224 69.1143 15.7391 69.1143C16.4213 69.1143 17.071 69.2767 17.6557 69.699V64.209H19.4749V72.6552C19.4749 74.6043 17.7856 76.1961 15.8365 76.1961C13.725 76.1961 12.1982 74.7667 12.1982 72.6552ZM17.6557 72.6552C17.6557 71.5832 16.9085 70.8035 15.8365 70.8035C14.7645 70.8035 14.0174 71.5832 14.0174 72.6552C14.0174 73.7272 14.797 74.5068 15.8365 74.5068C16.876 74.5068 17.6557 73.6947 17.6557 72.6552Z" fill="#262526"/>
<path d="M21.0991 72.6551C21.0991 70.706 22.7883 69.1142 24.7375 69.1142C26.849 69.1142 28.2459 70.4461 28.3758 72.6551V73.2723H22.8858C23.1132 74.0844 23.8279 74.6367 24.7375 74.6367C25.3222 74.6367 25.647 74.4743 26.1343 74.0195L27.2388 75.1564C26.5891 75.8061 25.712 76.196 24.7375 76.196C22.6259 76.196 21.0991 74.7666 21.0991 72.6551ZM26.5891 71.8754C26.3292 71.0958 25.6795 70.576 24.7375 70.576C23.7954 70.576 23.1782 71.1283 22.9183 71.8754H26.5891Z" fill="#262526"/>
<path d="M38.9172 64.209H40.6065L45.6742 76.0336H43.79L43.0753 74.3444H36.4484L35.7662 76.0336H33.8495L38.9172 64.209ZM42.3607 72.6551L39.7619 66.418L37.163 72.6551H42.3607Z" fill="#262526"/>
<path d="M46.9086 72.6551C46.9086 70.5435 48.7278 69.1142 50.5795 69.1142C51.7489 69.1142 52.691 69.5365 53.3407 70.2512C54.0229 69.5365 55.0299 69.1142 56.037 69.1142C58.1485 69.1142 59.6428 70.5435 59.6428 72.6551V76.0335H57.8237V72.6551C57.8237 71.5831 57.044 70.8034 56.0045 70.8034C54.965 70.8034 54.1853 71.5831 54.1853 72.6551V76.0335H52.3661V72.6551C52.3661 71.5831 51.619 70.8034 50.547 70.8034C49.475 70.8034 48.7278 71.5831 48.7278 72.6551V76.0335H46.9086V72.6551Z" fill="#262526"/>
<path d="M61.0721 72.6551C61.0721 70.706 62.7614 69.1142 64.7105 69.1142C66.822 69.1142 68.3488 70.5435 68.3488 72.6551C68.3488 74.6042 66.6596 76.196 64.7105 76.196C62.5989 76.196 61.0721 74.7666 61.0721 72.6551ZM66.5297 72.6551C66.5297 71.5831 65.7825 70.8034 64.7105 70.8034C63.6385 70.8034 62.8913 71.5831 62.8913 72.6551C62.8913 73.7271 63.671 74.5067 64.7105 74.5067C65.75 74.5067 66.5297 73.6946 66.5297 72.6551Z" fill="#262526"/>
<path d="M69.7782 71.8106C69.7782 70.3163 70.8502 69.2767 72.312 69.2767H72.9617V70.966H72.442C71.9547 70.966 71.5974 71.2908 71.5974 71.8106V76.0336H69.7782V71.8106Z" fill="#262526"/>
</svg>
