<svg width="48" height="48" viewBox="0 0 48 48" fill="none" xmlns="http://www.w3.org/2000/svg">
<path d="M24 42C33.9411 42 42 33.9411 42 24C42 14.0589 33.9411 6 24 6C14.0589 6 6 14.0589 6 24C6 33.9411 14.0589 42 24 42Z" stroke="#54BC42" stroke-width="4" stroke-linecap="round" stroke-linejoin="round"/>
<path d="M16 12V7.99999C21 5.66599 32.8 3.99999 40 16H38C36.9391 16 35.9217 16.4214 35.1716 17.1716C34.4214 17.9217 34 18.9391 34 20C34 21.0609 33.5786 22.0783 32.8284 22.8284C32.0783 23.5786 31.0609 24 30 24C28.9391 24 27.9217 23.5786 27.1716 22.8284C26.4214 22.0783 26 21.0609 26 20C26 18.9391 25.5786 17.9217 24.8284 17.1716C24.0783 16.4214 23.0609 16 22 16H20C18.9391 16 17.9217 15.5786 17.1716 14.8284C16.4214 14.0783 16 13.0609 16 12ZM34 32H40C37.6 35.2 32.334 38.666 30 40V36C30 34.9391 30.4214 33.9217 31.1716 33.1716C31.9217 32.4214 32.9391 32 34 32ZM22 36V40C9.2 39.2 6 29 6 24H10C11.0609 24 12.0783 24.4214 12.8284 25.1716C13.5786 25.9217 14 26.9391 14 28C14 29.0609 14.4214 30.0783 15.1716 30.8284C15.9217 31.5786 16.9391 32 18 32C19.0609 32 20.0783 32.4214 20.8284 33.1716C21.5786 33.9217 22 34.9391 22 36Z" fill="#54BC42"/>
<path d="M16 12V7.99999C21 5.66599 32.8 3.99999 40 16H38C36.9391 16 35.9217 16.4214 35.1716 17.1716C34.4214 17.9217 34 18.9391 34 20C34 21.0609 33.5786 22.0783 32.8284 22.8284C32.0783 23.5786 31.0609 24 30 24C28.9391 24 27.9217 23.5786 27.1716 22.8284C26.4214 22.0783 26 21.0609 26 20C26 18.9391 25.5786 17.9217 24.8284 17.1716C24.0783 16.4214 23.0609 16 22 16H20C18.9391 16 17.9217 15.5786 17.1716 14.8284C16.4214 14.0783 16 13.0609 16 12ZM34 32H40C37.6 35.2 32.334 38.666 30 40V36C30 34.9391 30.4214 33.9217 31.1716 33.1716C31.9217 32.4214 32.9391 32 34 32ZM22 36V40C9.2 39.2 6 29 6 24H10C11.0609 24 12.0783 24.4214 12.8284 25.1716C13.5786 25.9217 14 26.9391 14 28C14 29.0609 14.4214 30.0783 15.1716 30.8284C15.9217 31.5786 16.9391 32 18 32C19.0609 32 20.0783 32.4214 20.8284 33.1716C21.5786 33.9217 22 34.9391 22 36Z" stroke="#54BC42" stroke-width="4" stroke-linecap="round" stroke-linejoin="round"/>
</svg>
