<svg width="48" height="48" viewBox="0 0 48 48" fill="none" xmlns="http://www.w3.org/2000/svg">
<g clip-path="url(#clip0_67_967)">
<mask id="mask0_67_967" style="mask-type:luminance" maskUnits="userSpaceOnUse" x="0" y="0" width="48" height="48">
<path d="M0 0H48V48H0V0Z" fill="white"/>
</mask>
<g mask="url(#mask0_67_967)">
<path d="M22.0519 14.732L34.1779 7.73199L40.1779 18.124L28.0519 25.124C27.5926 25.3892 27.0467 25.4611 26.5344 25.3238C26.022 25.1865 25.5852 24.8513 25.3199 24.392L19.2599 27.892L14.9279 30.392C14.4686 30.6572 13.9227 30.7291 13.4104 30.5918C12.898 30.4545 12.4612 30.1193 12.1959 29.66L8.73195 31.66C8.50441 31.7934 8.25273 31.8805 7.9914 31.9162C7.73007 31.9519 7.46425 31.9356 7.20926 31.8682C6.95426 31.8008 6.71511 31.6836 6.50559 31.5234C6.29607 31.3631 6.1203 31.1631 5.98842 30.9347C5.85654 30.7062 5.77114 30.454 5.73714 30.1924C5.70315 29.9309 5.72122 29.6652 5.79033 29.4106C5.85944 29.1561 5.97821 28.9177 6.13981 28.7092C6.30142 28.5008 6.50266 28.3264 6.73195 28.196L10.1959 26.196C9.93074 25.7366 9.85887 25.1907 9.99615 24.6784C10.1334 24.166 10.4686 23.7292 10.9279 23.464L21.3199 17.464C21.0547 17.0046 20.9829 16.4587 21.1201 15.9464C21.2574 15.4341 21.5926 14.9972 22.0519 14.732Z" fill="#DB483B"/>
<path d="M33.176 6L34.176 7.732M34.176 7.732L22.052 14.732C21.5927 14.9972 21.2575 15.4341 21.1202 15.9464C20.9829 16.4587 21.0548 17.0046 21.32 17.464M34.176 7.732L40.176 18.124M41.176 19.856L40.176 18.124M40.176 18.124L28.052 25.124C27.5926 25.3892 27.0467 25.4611 26.5344 25.3238C26.0221 25.1865 25.5852 24.8513 25.32 24.392M21.32 17.464L10.928 23.464C10.4687 23.7292 10.1335 24.1661 9.9962 24.6784C9.85893 25.1907 9.9308 25.7366 10.196 26.196M21.32 17.464L25.32 24.392M25.32 24.392L19.26 27.892L14.194 40M10.196 26.196L6.732 28.196C6.27265 28.4612 5.93748 28.8981 5.8002 29.4104C5.66293 29.9227 5.7348 30.4686 6 30.928C6.26523 31.3873 6.70206 31.7225 7.2144 31.8598C7.72675 31.9971 8.27264 31.9252 8.732 31.66L12.196 29.66M10.196 26.196L12.196 29.66M12.196 29.66C12.4612 30.1193 12.8981 30.4545 13.4104 30.5918C13.9227 30.7291 14.4686 30.6572 14.928 30.392L19.258 27.892L26 40" stroke="#DB483B" stroke-width="4" stroke-linecap="round" stroke-linejoin="round"/>
</g>
</g>
<defs>
<clipPath id="clip0_67_967">
<rect width="48" height="48" fill="white"/>
</clipPath>
</defs>
</svg>
