<svg width="35" height="35" viewBox="0 0 35 35" fill="none" xmlns="http://www.w3.org/2000/svg">
<path fill-rule="evenodd" clip-rule="evenodd" d="M17.5 4.375C15.7764 4.375 14.0697 4.71449 12.4773 5.37408C10.8849 6.03367 9.438 7.00046 8.21923 8.21922C7.00046 9.43799 6.03368 10.8849 5.37408 12.4773C4.71449 14.0697 4.375 15.7764 4.375 17.5C4.375 19.2236 4.71449 20.9303 5.37408 22.5227C6.03367 24.1151 7.00046 25.562 8.21923 26.7808C9.438 27.9995 10.8849 28.9663 12.4773 29.6259C14.0697 30.2855 15.7764 30.625 17.5 30.625C20.981 30.625 24.3194 29.2422 26.7808 26.7808C29.2422 24.3194 30.625 20.981 30.625 17.5C30.625 14.019 29.2422 10.6806 26.7808 8.21923C24.3194 5.75781 20.981 4.375 17.5 4.375ZM18.531 22.906C18.2574 23.1795 17.8863 23.333 17.4995 23.3329C17.1126 23.3328 16.7417 23.179 16.4682 22.9053C16.1948 22.6317 16.0412 22.2606 16.0414 21.8738C16.0415 21.4869 16.1953 21.1159 16.469 20.8425L18.3546 18.9583L13.125 18.9583C12.7382 18.9583 12.3673 18.8047 12.0938 18.5312C11.8203 18.2577 11.6667 17.8868 11.6667 17.5C11.6667 17.1132 11.8203 16.7423 12.0938 16.4688C12.3673 16.1953 12.7382 16.0417 13.125 16.0417L18.3531 16.0417L16.469 14.156C16.2033 13.881 16.0563 13.5126 16.0596 13.1302C16.063 12.7479 16.2163 12.3821 16.4867 12.1117C16.7571 11.8413 17.1229 11.688 17.5053 11.6846C17.8876 11.6813 18.256 11.8283 18.531 12.094L22.906 16.469C23.0416 16.6044 23.1492 16.7652 23.2226 16.9423C23.296 17.1193 23.3338 17.3091 23.3338 17.5007C23.3338 17.6924 23.296 17.8821 23.2226 18.0592C23.1492 18.2362 23.0416 18.3971 22.906 18.5325L18.531 22.9075L18.531 22.906Z" fill="#016EEF"/>
</svg>
