<svg width="48" height="48" viewBox="0 0 48 48" fill="none" xmlns="http://www.w3.org/2000/svg">
<path d="M40 38V21C40 20.6895 39.9277 20.3833 39.7889 20.1056C39.65 19.8279 39.4484 19.5863 39.2 19.4L25.2 8.9C24.8538 8.64036 24.4327 8.5 24 8.5C23.5673 8.5 23.1462 8.64036 22.8 8.9L8.8 19.4C8.55161 19.5863 8.35 19.8279 8.21115 20.1056C8.07229 20.3833 8 20.6895 8 21V38C8 38.5304 8.21071 39.0391 8.58579 39.4142C8.96086 39.7893 9.46957 40 10 40H18C18.5304 40 19.0391 39.7893 19.4142 39.4142C19.7893 39.0391 20 38.5304 20 38V32C20 31.4696 20.2107 30.9609 20.5858 30.5858C20.9609 30.2107 21.4696 30 22 30H26C26.5304 30 27.0391 30.2107 27.4142 30.5858C27.7893 30.9609 28 31.4696 28 32V38C28 38.5304 28.2107 39.0391 28.5858 39.4142C28.9609 39.7893 29.4696 40 30 40H38C38.5304 40 39.0391 39.7893 39.4142 39.4142C39.7893 39.0391 40 38.5304 40 38Z" fill="#016EEF" stroke="#016EEF" stroke-width="4" stroke-linecap="round" stroke-linejoin="round"/>
</svg>
