<svg width="48" height="48" viewBox="0 0 48 48" fill="none" xmlns="http://www.w3.org/2000/svg">
<path d="M24 14C21.7014 13.9985 19.4725 14.7889 17.6884 16.2382C15.9043 17.6874 14.6739 19.7071 14.2044 21.9572C13.7348 24.2073 14.0547 26.5505 15.1103 28.5923C16.1659 30.6342 17.8927 32.2501 20 33.168V38H28V33.168C30.1054 32.2485 31.83 30.6323 32.8841 28.591C33.9382 26.5497 34.2574 24.2077 33.788 21.9588C33.3187 19.7098 32.0895 17.691 30.307 16.2416C28.5245 14.7923 26.2974 14.0007 24 14Z" fill="#FECE02"/>
<path d="M42 24H44M37 11L39 9M24 6V4M11 11L9 9M6 24H4M20 44H28M34 24C33.9995 22.1972 33.5116 20.4281 32.5881 18.8799C31.6645 17.3316 30.3396 16.0618 28.7535 15.2049C27.1674 14.3479 25.3792 13.9357 23.578 14.0118C21.7769 14.0878 20.0298 14.6494 18.5216 15.637C17.0134 16.6247 15.8003 18.0016 15.0105 19.6222C14.2208 21.2428 13.8839 23.0468 14.0354 24.8432C14.1869 26.6396 14.8212 28.3616 15.8711 29.8271C16.9211 31.2925 18.3477 32.4469 20 33.168V38H28V33.168C29.7838 32.3895 31.3016 31.1074 32.3674 29.4789C33.4332 27.8504 34.0006 25.9463 34 24Z" stroke="#FECE02" stroke-width="4" stroke-linecap="round" stroke-linejoin="round"/>
</svg>
