<svg width="500" height="500" viewBox="0 0 500 500" fill="none" xmlns="http://www.w3.org/2000/svg">
<path d="M327.32 119.74C303.74 103.63 270.25 104.68 250.72 132.89C231.04 104.79 197.54 103.91 174.05 120.15C148.03 138.13 141.16 172.71 157.14 199.62C159.92 204.3 163.21 209 166.85 213.66C170.66 212.13 175.97 210.97 177.81 210.34L244.78 187.27C251.4 184.97 257.28 179.92 261.06 173.29C266.33 164.01 276.18 155.9 287.4 151.59C306.69 144.2 325.99 148.45 328.74 162.61C329.49 166.52 328.57 170.11 326.74 174.07C325.43 176.89 320.77 184 318.46 186.08C303.25 199.77 293.05 203.13 271.82 200.69C259.8 197.04 254.31 199.93 247.78 202.68L181.84 230.62C203.84 253.07 231.55 272.84 250.1 283.1C250.74 283.46 251.52 283.45 252.17 283.1C278.92 268.13 324.71 233.17 344.67 199.12C360.49 172.13 353.44 137.59 327.33 119.74H327.32Z" fill="#DB483C"/>
<path d="M93.52 315.75C93.52 303.39 103.84 293.31 116.2 293.31C122.8 293.31 128.2 295.83 132.16 299.67L127.36 304.47C124.6 301.47 120.76 299.67 116.2 299.67C107.32 299.67 100.72 306.87 100.72 315.75C100.72 324.63 107.32 331.83 116.2 331.83C120.64 331.83 124.6 329.91 127.36 326.91L132.04 331.59C127.96 335.67 122.32 338.19 116.2 338.19C102.88 338.19 93.52 329.07 93.52 315.75Z" fill="#262526"/>
<path d="M137.92 325.11V312.63H144.64V325.11C144.64 328.95 147.52 331.95 151.36 331.95C155.2 331.95 158.08 328.95 158.08 325.11V312.63H164.8V325.11C164.8 332.91 158.08 338.19 151.24 338.19C143.44 338.19 137.92 332.91 137.92 325.11Z" fill="#262526"/>
<path d="M171.28 325.11C171.28 317.91 177.52 312.03 184.72 312.03C188.44 312.03 191.44 313.11 194.08 315.75L189.64 320.19C188.32 318.99 186.64 318.27 184.72 318.27C180.88 318.27 178 321.15 178 325.11C178 329.07 180.88 331.95 184.72 331.95C186.52 331.95 188.32 331.11 189.52 329.91L193.96 334.23C191.56 336.75 188.2 338.19 184.72 338.19C176.92 338.19 171.28 332.91 171.28 325.11Z" fill="#262526"/>
<path d="M200.8 293.91H207.52V314.79C208.96 313.11 211.72 312.03 214.84 312.03C222.4 312.03 227.68 317.31 227.68 325.11V337.59H220.96V325.11C220.96 321.15 218.2 318.27 214.24 318.27C210.28 318.27 207.52 321.15 207.52 325.11V337.59H200.8V293.91Z" fill="#262526"/>
<path d="M232.96 325.11C232.96 317.91 239.2 312.03 246.4 312.03C254.2 312.03 259.84 317.31 259.84 325.11V337.59H253.24V335.43C251.68 337.11 248.92 338.19 245.8 338.19C238.24 338.19 232.96 332.91 232.96 325.11ZM253.12 325.11C253.12 321.15 250.36 318.27 246.4 318.27C242.44 318.27 239.68 321.15 239.68 325.11C239.68 329.07 242.56 331.95 246.4 331.95C250.24 331.95 253.12 328.95 253.12 325.11Z" fill="#262526"/>
<path d="M266.32 321.99C266.32 316.47 270.28 312.63 275.68 312.63H278.08V318.87H276.16C274.36 318.87 273.04 320.07 273.04 321.99V337.59H266.32V321.99Z" fill="#262526"/>
<path d="M282.4 325.11C282.4 317.91 288.64 312.03 295.84 312.03C303.64 312.03 309.28 317.31 309.28 325.11V337.59H302.68V335.43C301.12 337.11 298.36 338.19 295.24 338.19C287.68 338.19 282.4 332.91 282.4 325.11ZM302.56 325.11C302.56 321.15 299.8 318.27 295.84 318.27C291.88 318.27 289.12 321.15 289.12 325.11C289.12 329.07 292 331.95 295.84 331.95C299.68 331.95 302.56 328.95 302.56 325.11Z" fill="#262526"/>
<path d="M314.56 325.11C314.56 317.91 320.56 312.03 327.64 312.03C330.16 312.03 332.56 312.63 334.72 314.19V293.91H341.44V325.11C341.44 332.31 335.2 338.19 328 338.19C320.2 338.19 314.56 332.91 314.56 325.11ZM334.72 325.11C334.72 321.15 331.96 318.27 328 318.27C324.04 318.27 321.28 321.15 321.28 325.11C321.28 329.07 324.16 331.95 328 331.95C331.84 331.95 334.72 328.95 334.72 325.11Z" fill="#262526"/>
<path d="M347.44 325.11C347.44 317.91 353.68 312.03 360.88 312.03C368.68 312.03 374.32 317.31 374.32 325.11V337.59H367.72V335.43C366.16 337.11 363.4 338.19 360.28 338.19C352.72 338.19 347.44 332.91 347.44 325.11ZM367.6 325.11C367.6 321.15 364.84 318.27 360.88 318.27C356.92 318.27 354.16 321.15 354.16 325.11C354.16 329.07 357.04 331.95 360.88 331.95C364.72 331.95 367.6 328.95 367.6 325.11Z" fill="#262526"/>
<path d="M381.52 331.95H398.2C399.4 331.95 400.24 331.11 400.24 329.91C400.24 328.83 399.4 327.99 398.2 327.99H388.48C384.28 327.99 380.8 324.63 380.8 320.31C380.8 316.23 384.28 312.63 388.48 312.63H403.36V318.27H389.08C388 318.27 387.04 319.11 387.04 320.19C387.04 321.39 387.88 322.23 389.08 322.23H398.8C403 322.23 406.48 325.47 406.48 329.91C406.48 333.87 403 337.59 398.8 337.59H381.52V331.95Z" fill="#262526"/>
<path d="M138.58 377.65C138.58 370.45 144.58 364.57 151.66 364.57C154.18 364.57 156.58 365.17 158.74 366.73V346.45H165.46V377.65C165.46 384.85 159.22 390.73 152.02 390.73C144.22 390.73 138.58 385.45 138.58 377.65ZM158.74 377.65C158.74 373.69 155.98 370.81 152.02 370.81C148.06 370.81 145.3 373.69 145.3 377.65C145.3 381.61 148.18 384.49 152.02 384.49C155.86 384.49 158.74 381.49 158.74 377.65Z" fill="#262526"/>
<path d="M171.46 377.65C171.46 370.45 177.7 364.57 184.9 364.57C192.7 364.57 197.86 369.49 198.34 377.65V379.93H178.06C178.9 382.93 181.54 384.97 184.9 384.97C187.06 384.97 188.26 384.37 190.06 382.69L194.14 386.89C191.74 389.29 188.5 390.73 184.9 390.73C177.1 390.73 171.46 385.45 171.46 377.65ZM191.74 374.77C190.78 371.89 188.38 369.97 184.9 369.97C181.42 369.97 179.14 372.01 178.18 374.77H191.74Z" fill="#262526"/>
<path d="M237.28 346.45H243.52L262.24 390.13H255.28L252.64 383.89H228.16L225.64 390.13H218.56L237.28 346.45ZM250 377.65L240.4 354.61L230.8 377.65H250Z" fill="#262526"/>
<path d="M266.8 377.65C266.8 369.85 273.52 364.57 280.36 364.57C284.68 364.57 288.16 366.13 290.56 368.77C293.08 366.13 296.8 364.57 300.52 364.57C308.32 364.57 313.84 369.85 313.84 377.65V390.13H307.12V377.65C307.12 373.69 304.24 370.81 300.4 370.81C296.56 370.81 293.68 373.69 293.68 377.65V390.13H286.96V377.65C286.96 373.69 284.2 370.81 280.24 370.81C276.28 370.81 273.52 373.69 273.52 377.65V390.13H266.8V377.65Z" fill="#262526"/>
<path d="M319.12 377.65C319.12 370.45 325.36 364.57 332.56 364.57C340.36 364.57 346 369.85 346 377.65C346 384.85 339.76 390.73 332.56 390.73C324.76 390.73 319.12 385.45 319.12 377.65ZM339.28 377.65C339.28 373.69 336.52 370.81 332.56 370.81C328.6 370.81 325.84 373.69 325.84 377.65C325.84 381.61 328.72 384.49 332.56 384.49C336.4 384.49 339.28 381.49 339.28 377.65Z" fill="#262526"/>
<path d="M351.28 374.53C351.28 369.01 355.24 365.17 360.64 365.17H363.04V371.41H361.12C359.32 371.41 358 372.61 358 374.53V390.13H351.28V374.53Z" fill="#262526"/>
</svg>
