<svg width="85" height="77" viewBox="0 0 85 77" fill="none" xmlns="http://www.w3.org/2000/svg">
<path d="M63.292 2.83618C56.9086 -1.52496 47.8425 -1.24071 42.5556 6.39601C37.228 -1.21094 28.1592 -1.44916 21.8003 2.94717C14.7564 7.81453 12.8966 17.1757 17.2226 24.4605C17.9751 25.7274 18.8658 26.9997 19.8512 28.2612C20.8826 27.8471 22.32 27.533 22.8181 27.3625L40.9476 21.1172C42.7397 20.4946 44.3314 19.1275 45.3547 17.3327C46.7814 14.8205 49.4479 12.625 52.4852 11.4583C57.7072 9.45774 62.9319 10.6083 63.6764 14.4415C63.8794 15.5 63.6303 16.4718 63.1349 17.5438C62.7803 18.3072 61.5188 20.232 60.8935 20.7951C56.776 24.5011 54.0147 25.4107 48.2676 24.7501C45.0136 23.7621 43.5274 24.5444 41.7597 25.2889L23.9091 32.8525C29.8647 38.9299 37.3661 44.2819 42.3877 47.0593C42.561 47.1568 42.7722 47.1541 42.9481 47.0593C50.1896 43.0068 62.5854 33.5428 67.9888 24.3251C72.2714 17.0187 70.3629 7.66835 63.2947 2.83618H63.292Z" fill="#DB483C"/>
<path d="M0 55.8981C0 52.5521 2.79373 49.8234 6.1397 49.8234C7.92638 49.8234 9.38822 50.5056 10.4602 51.5451L9.16082 52.8445C8.41366 52.0324 7.37414 51.5451 6.1397 51.5451C3.7358 51.5451 1.94911 53.4942 1.94911 55.8981C1.94911 58.302 3.7358 60.2511 6.1397 60.2511C7.34165 60.2511 8.41366 59.7313 9.16082 58.9192L10.4277 60.1861C9.32325 61.2906 7.79644 61.9728 6.1397 61.9728C2.53384 61.9728 0 59.504 0 55.8981Z" fill="#262526"/>
<path d="M12.0195 58.4319V55.0535H13.8387V58.4319C13.8387 59.4714 14.6183 60.2836 15.6579 60.2836C16.6974 60.2836 17.477 59.4714 17.477 58.4319V55.0535H19.2962V58.4319C19.2962 60.5435 17.477 61.9728 15.6254 61.9728C13.5139 61.9728 12.0195 60.5435 12.0195 58.4319Z" fill="#262526"/>
<path d="M21.0504 58.4319C21.0504 56.4828 22.7396 54.891 24.6888 54.891C25.6958 54.891 26.5079 55.1834 27.2226 55.898L26.0206 57.1C25.6633 56.7751 25.2085 56.5802 24.6888 56.5802C23.6492 56.5802 22.8696 57.3599 22.8696 58.4319C22.8696 59.5039 23.6492 60.2835 24.6888 60.2835C25.176 60.2835 25.6633 60.0561 25.9882 59.7313L27.1901 60.9008C26.5404 61.5829 25.6308 61.9728 24.6888 61.9728C22.5772 61.9728 21.0504 60.5434 21.0504 58.4319Z" fill="#262526"/>
<path d="M29.0417 49.9855H30.8609V55.6379C31.2507 55.1831 31.9979 54.8907 32.8425 54.8907C34.8891 54.8907 36.3184 56.3201 36.3184 58.4316V61.8101H34.4993V58.4316C34.4993 57.3596 33.7521 56.58 32.6801 56.58C31.6081 56.58 30.8609 57.3596 30.8609 58.4316V61.8101H29.0417V49.9855Z" fill="#262526"/>
<path d="M37.7478 58.4319C37.7478 56.4828 39.437 54.891 41.3861 54.891C43.4977 54.891 45.0245 56.3203 45.0245 58.4319V61.8103H43.2378V61.2256C42.8155 61.6804 42.0683 61.9728 41.2237 61.9728C39.1771 61.9728 37.7478 60.5434 37.7478 58.4319ZM43.2053 58.4319C43.2053 57.3599 42.4582 56.5802 41.3861 56.5802C40.3141 56.5802 39.567 57.3599 39.567 58.4319C39.567 59.5039 40.3466 60.2835 41.3861 60.2835C42.4257 60.2835 43.2053 59.4714 43.2053 58.4319Z" fill="#262526"/>
<path d="M46.7787 57.5873C46.7787 56.093 47.8507 55.0535 49.3125 55.0535H49.9622V56.7427H49.4425C48.9552 56.7427 48.5979 57.0675 48.5979 57.5873V61.8104H46.7787V57.5873Z" fill="#262526"/>
<path d="M51.1317 58.4319C51.1317 56.4828 52.8209 54.891 54.7701 54.891C56.8816 54.891 58.4084 56.3203 58.4084 58.4319V61.8103H56.6217V61.2256C56.1994 61.6804 55.4522 61.9728 54.6076 61.9728C52.5611 61.9728 51.1317 60.5434 51.1317 58.4319ZM56.5892 58.4319C56.5892 57.3599 55.8421 56.5802 54.7701 56.5802C53.698 56.5802 52.9509 57.3599 52.9509 58.4319C52.9509 59.5039 53.7305 60.2835 54.7701 60.2835C55.8096 60.2835 56.5892 59.4714 56.5892 58.4319Z" fill="#262526"/>
<path d="M59.8377 58.4316C59.8377 56.4825 61.462 54.8907 63.3786 54.8907C64.0608 54.8907 64.7105 55.0532 65.2952 55.4755V49.9855H67.1144V58.4316C67.1144 60.3807 65.4252 61.9725 63.476 61.9725C61.3645 61.9725 59.8377 60.5432 59.8377 58.4316ZM65.2952 58.4316C65.2952 57.3596 64.5481 56.58 63.476 56.58C62.404 56.58 61.6569 57.3596 61.6569 58.4316C61.6569 59.5036 62.4365 60.2833 63.476 60.2833C64.5156 60.2833 65.2952 59.4711 65.2952 58.4316Z" fill="#262526"/>
<path d="M68.7386 58.4319C68.7386 56.4828 70.4279 54.891 72.377 54.891C74.4885 54.891 76.0153 56.3203 76.0153 58.4319V61.8103H74.2286V61.2256C73.8063 61.6804 73.0592 61.9728 72.2146 61.9728C70.168 61.9728 68.7386 60.5434 68.7386 58.4319ZM74.1962 58.4319C74.1962 57.3599 73.449 56.5802 72.377 56.5802C71.305 56.5802 70.5578 57.3599 70.5578 58.4319C70.5578 59.5039 71.3375 60.2835 72.377 60.2835C73.4165 60.2835 74.1962 59.4714 74.1962 58.4319Z" fill="#262526"/>
<path d="M77.9644 60.2836H82.4799C82.8047 60.2836 83.0321 60.0562 83.0321 59.7313C83.0321 59.439 82.8047 59.2116 82.4799 59.2116H79.8486C78.7116 59.2116 77.7695 58.302 77.7695 57.1325C77.7695 56.028 78.7116 55.0535 79.8486 55.0535H83.8767V56.5803H80.011C79.7186 56.5803 79.4588 56.8077 79.4588 57.1C79.4588 57.4249 79.6862 57.6523 80.011 57.6523H82.6423C83.7793 57.6523 84.7214 58.5294 84.7214 59.7313C84.7214 60.8033 83.7793 61.8104 82.6423 61.8104H77.9644V60.2836Z" fill="#262526"/>
<path d="M12.1982 72.655C12.1982 70.7059 13.8224 69.1141 15.7391 69.1141C16.4213 69.1141 17.071 69.2766 17.6557 69.6989V64.2089H19.4749V72.655C19.4749 74.6041 17.7856 76.1959 15.8365 76.1959C13.725 76.1959 12.1982 74.7665 12.1982 72.655ZM17.6557 72.655C17.6557 71.583 16.9085 70.8034 15.8365 70.8034C14.7645 70.8034 14.0174 71.583 14.0174 72.655C14.0174 73.727 14.797 74.5067 15.8365 74.5067C16.876 74.5067 17.6557 73.6945 17.6557 72.655Z" fill="#262526"/>
<path d="M21.0991 72.6549C21.0991 70.7058 22.7883 69.114 24.7375 69.114C26.849 69.114 28.2459 70.4459 28.3758 72.6549V73.2721H22.8858C23.1132 74.0842 23.8279 74.6365 24.7375 74.6365C25.3222 74.6365 25.647 74.4741 26.1343 74.0193L27.2388 75.1563C26.5891 75.806 25.712 76.1958 24.7375 76.1958C22.6259 76.1958 21.0991 74.7664 21.0991 72.6549ZM26.5891 71.8752C26.3292 71.0956 25.6795 70.5758 24.7375 70.5758C23.7954 70.5758 23.1782 71.1281 22.9183 71.8752H26.5891Z" fill="#262526"/>
<path d="M38.9172 64.2089H40.6065L45.6742 76.0335H43.79L43.0753 74.3442H36.4484L35.7662 76.0335H33.8495L38.9172 64.2089ZM42.3607 72.655L39.7619 66.4178L37.163 72.655H42.3607Z" fill="#262526"/>
<path d="M46.9086 72.6549C46.9086 70.5434 48.7278 69.114 50.5795 69.114C51.7489 69.114 52.691 69.5363 53.3407 70.251C54.0229 69.5363 55.0299 69.114 56.037 69.114C58.1485 69.114 59.6428 70.5434 59.6428 72.6549V76.0334H57.8237V72.6549C57.8237 71.5829 57.044 70.8032 56.0045 70.8032C54.965 70.8032 54.1853 71.5829 54.1853 72.6549V76.0334H52.3661V72.6549C52.3661 71.5829 51.619 70.8032 50.547 70.8032C49.475 70.8032 48.7278 71.5829 48.7278 72.6549V76.0334H46.9086V72.6549Z" fill="#262526"/>
<path d="M61.0721 72.6549C61.0721 70.7058 62.7614 69.114 64.7105 69.114C66.822 69.114 68.3488 70.5434 68.3488 72.6549C68.3488 74.604 66.6596 76.1958 64.7105 76.1958C62.5989 76.1958 61.0721 74.7664 61.0721 72.6549ZM66.5297 72.6549C66.5297 71.5829 65.7825 70.8032 64.7105 70.8032C63.6385 70.8032 62.8913 71.5829 62.8913 72.6549C62.8913 73.7269 63.671 74.5065 64.7105 74.5065C65.75 74.5065 66.5297 73.6944 66.5297 72.6549Z" fill="#262526"/>
<path d="M69.7782 71.8105C69.7782 70.3161 70.8502 69.2766 72.312 69.2766H72.9617V70.9658H72.442C71.9547 70.9658 71.5974 71.2907 71.5974 71.8105V76.0335H69.7782V71.8105Z" fill="#262526"/>
</svg>
