<svg width="48" height="48" viewBox="0 0 48 48" fill="none" xmlns="http://www.w3.org/2000/svg">
<path fill-rule="evenodd" clip-rule="evenodd" d="M14 4C12.4087 4 10.8826 4.63214 9.75736 5.75736C8.63214 6.88258 8 8.4087 8 10V40.276C7.99982 40.8015 8.13769 41.3179 8.39981 41.7734C8.66193 42.2289 9.0391 42.6075 9.49357 42.8714C9.94803 43.1353 10.4638 43.2752 10.9894 43.277C11.5149 43.2789 12.0317 43.1427 12.488 42.882L23.008 36.87C23.3101 36.6974 23.6521 36.6066 24 36.6066C24.3479 36.6066 24.6899 36.6974 24.992 36.87L35.512 42.882C35.9683 43.1427 36.4851 43.2789 37.0106 43.277C37.5362 43.2752 38.052 43.1353 38.5064 42.8714C38.9609 42.6075 39.3381 42.2289 39.6002 41.7734C39.8623 41.3179 40.0002 40.8015 40 40.276V10C40 8.4087 39.3679 6.88258 38.2426 5.75736C37.1174 4.63214 35.5913 4 34 4H14Z" fill="#FECE02"/>
</svg>
