<svg width="48" height="48" viewBox="0 0 48 48" fill="none" xmlns="http://www.w3.org/2000/svg">
<path d="M33.5 12H40C40.5304 12 41.0391 12.2107 41.4142 12.5858C41.7893 12.9609 42 13.4696 42 14V20.5C42 20.8978 41.842 21.2794 41.5607 21.5607C41.2794 21.842 40.8978 22 40.5 22H40C38.9391 22 37.9217 22.4214 37.1716 23.1716C36.4214 23.9217 36 24.9391 36 26C36 27.0609 36.4214 28.0783 37.1716 28.8284C37.9217 29.5786 38.9391 30 40 30H40.5C40.8978 30 41.2794 30.158 41.5607 30.4393C41.842 30.7206 42 31.1022 42 31.5V40C42 40.5304 41.7893 41.0391 41.4142 41.4142C41.0391 41.7893 40.5304 42 40 42H33.5C33.1022 42 32.7206 41.842 32.4393 41.5607C32.158 41.2794 32 40.8978 32 40.5V40C32 38.9391 31.5786 37.9217 30.8284 37.1716C30.0783 36.4214 29.0609 36 28 36C26.9391 36 25.9217 36.4214 25.1716 37.1716C24.4214 37.9217 24 38.9391 24 40V40.5C24 40.8978 23.842 41.2794 23.5607 41.5607C23.2794 41.842 22.8978 42 22.5 42H14C13.4696 42 12.9609 41.7893 12.5858 41.4142C12.2107 41.0391 12 40.5304 12 40V31.5C12 31.1022 11.842 30.7206 11.5607 30.4393C11.2794 30.158 10.8978 30 10.5 30H10C8.93913 30 7.92172 29.5786 7.17157 28.8284C6.42143 28.0783 6 27.0609 6 26C6 24.9391 6.42143 23.9217 7.17157 23.1716C7.92172 22.4214 8.93913 22 10 22H10.5C10.8978 22 11.2794 21.842 11.5607 21.5607C11.842 21.2794 12 20.8978 12 20.5V14C12 13.4696 12.2107 12.9609 12.5858 12.5858C12.9609 12.2107 13.4696 12 14 12H22.5C22.8978 12 23.2794 11.842 23.5607 11.5607C23.842 11.2794 24 10.8978 24 10.5V10C24 8.93913 24.4214 7.92172 25.1716 7.17157C25.9217 6.42143 26.9391 6 28 6C29.0609 6 30.0783 6.42143 30.8284 7.17157C31.5786 7.92172 32 8.93913 32 10V10.5C32 11.328 32.672 12 33.5 12Z" fill="#FECE02" stroke="#FECE02" stroke-width="4" stroke-linecap="round" stroke-linejoin="round"/>
</svg>
