<svg width="60" height="60" viewBox="0 0 60 60" fill="none" xmlns="http://www.w3.org/2000/svg">
<path d="M30 52.5C42.4264 52.5 52.5 42.4264 52.5 30C52.5 17.5736 42.4264 7.5 30 7.5C17.5736 7.5 7.5 17.5736 7.5 30C7.5 42.4264 17.5736 52.5 30 52.5Z" stroke="#DB483B" stroke-width="4" stroke-linecap="round" stroke-linejoin="round"/>
<path d="M20 15V10C26.25 7.0825 41 5 50 20H47.5C46.1739 20 44.9021 20.5268 43.9645 21.4645C43.0268 22.4022 42.5 23.6739 42.5 25C42.5 26.3261 41.9732 27.5979 41.0355 28.5355C40.0979 29.4732 38.8261 30 37.5 30C36.1739 30 34.9021 29.4732 33.9645 28.5355C33.0268 27.5979 32.5 26.3261 32.5 25C32.5 23.6739 31.9732 22.4022 31.0355 21.4645C30.0979 20.5268 28.8261 20 27.5 20H25C23.6739 20 22.4021 19.4732 21.4645 18.5355C20.5268 17.5979 20 16.3261 20 15ZM42.5 40H50C47 44 40.4175 48.3325 37.5 50V45C37.5 43.6739 38.0268 42.4022 38.9645 41.4645C39.9021 40.5268 41.1739 40 42.5 40ZM27.5 45V50C11.5 49 7.5 36.25 7.5 30H12.5C13.8261 30 15.0979 30.5268 16.0355 31.4645C16.9732 32.4022 17.5 33.6739 17.5 35C17.5 36.3261 18.0268 37.5979 18.9645 38.5355C19.9021 39.4732 21.1739 40 22.5 40C23.8261 40 25.0979 40.5268 26.0355 41.4645C26.9732 42.4022 27.5 43.6739 27.5 45Z" fill="#DB483B"/>
<path d="M20 15V10C26.25 7.0825 41 5 50 20H47.5C46.1739 20 44.9021 20.5268 43.9645 21.4645C43.0268 22.4022 42.5 23.6739 42.5 25C42.5 26.3261 41.9732 27.5979 41.0355 28.5355C40.0979 29.4732 38.8261 30 37.5 30C36.1739 30 34.9021 29.4732 33.9645 28.5355C33.0268 27.5979 32.5 26.3261 32.5 25C32.5 23.6739 31.9732 22.4022 31.0355 21.4645C30.0979 20.5268 28.8261 20 27.5 20H25C23.6739 20 22.4021 19.4732 21.4645 18.5355C20.5268 17.5979 20 16.3261 20 15ZM42.5 40H50C47 44 40.4175 48.3325 37.5 50V45C37.5 43.6739 38.0268 42.4022 38.9645 41.4645C39.9021 40.5268 41.1739 40 42.5 40ZM27.5 45V50C11.5 49 7.5 36.25 7.5 30H12.5C13.8261 30 15.0979 30.5268 16.0355 31.4645C16.9732 32.4022 17.5 33.6739 17.5 35C17.5 36.3261 18.0268 37.5979 18.9645 38.5355C19.9021 39.4732 21.1739 40 22.5 40C23.8261 40 25.0979 40.5268 26.0355 41.4645C26.9732 42.4022 27.5 43.6739 27.5 45Z" stroke="#DB483B" stroke-width="4" stroke-linecap="round" stroke-linejoin="round"/>
</svg>
