<svg width="48" height="48" viewBox="0 0 48 48" fill="none" xmlns="http://www.w3.org/2000/svg">
<path fill-rule="evenodd" clip-rule="evenodd" d="M24 42L25.416 43.412C25.2302 43.5986 25.0094 43.7466 24.7662 43.8476C24.523 43.9486 24.2623 44.0006 23.999 44.0006C23.7357 44.0006 23.475 43.9486 23.2318 43.8476C22.9886 43.7466 22.7678 43.5986 22.582 43.412L22.57 43.398L22.536 43.364L22.412 43.238C21.707 42.5117 21.0136 41.7743 20.332 41.026C18.6214 39.1504 16.9829 37.2103 15.42 35.21C13.636 32.91 11.812 30.31 10.426 27.742C9.07 25.224 8 22.496 8 20C8 10.922 15.184 4 24 4C32.816 4 40 10.922 40 20C40 22.496 38.93 25.224 37.574 27.74C36.188 30.312 34.366 32.91 32.58 35.21C30.3935 38.0083 28.0596 40.688 25.588 43.238L25.464 43.364L25.43 43.398L25.418 43.41L24 42ZM24 26C25.5913 26 27.1174 25.3679 28.2426 24.2426C29.3679 23.1174 30 21.5913 30 20C30 18.4087 29.3679 16.8826 28.2426 15.7574C27.1174 14.6321 25.5913 14 24 14C22.4087 14 20.8826 14.6321 19.7574 15.7574C18.6321 16.8826 18 18.4087 18 20C18 21.5913 18.6321 23.1174 19.7574 24.2426C20.8826 25.3679 22.4087 26 24 26Z" fill="#DB483C"/>
</svg>
