<svg width="48" height="48" viewBox="0 0 48 48" fill="none" xmlns="http://www.w3.org/2000/svg">
<path fill-rule="evenodd" clip-rule="evenodd" d="M40.312 12.946C40.3062 11.5529 39.7501 10.2186 38.7649 9.23373C37.7796 8.24886 36.4451 7.69326 35.052 7.688C30.098 7.634 19.818 8.386 13 15.2C7.40799 20.792 7.16999 29.8 12.686 35.314C18.202 40.828 27.206 40.592 32.8 35C39.614 28.184 40.366 17.904 40.312 12.946ZM31.072 16.928C31.2579 17.1137 31.4055 17.3343 31.5061 17.5771C31.6068 17.8199 31.6586 18.0802 31.6586 18.343C31.6586 18.6058 31.6068 18.8661 31.5061 19.1089C31.4055 19.3517 31.2579 19.5723 31.072 19.758L29.116 21.712L30.29 22.102C30.7934 22.2699 31.2094 22.6309 31.4467 23.1055C31.6839 23.5802 31.7229 24.1296 31.555 24.633C31.3871 25.1364 31.0261 25.5525 30.5515 25.7897C30.0768 26.0269 29.5274 26.0659 29.024 25.898L25.954 24.874L23.46 27.368L24.632 27.76C25.1242 27.9362 25.5278 28.2981 25.7564 28.7682C25.9851 29.2382 26.0206 29.7792 25.8554 30.2751C25.6902 30.7711 25.3373 31.1826 24.8724 31.4217C24.4075 31.6607 23.8675 31.7082 23.368 31.554L21.022 30.774C20.7871 30.695 20.5573 30.6014 20.334 30.494L15.514 35.314L9.27199 41.556C8.89479 41.9203 8.38958 42.1219 7.86519 42.1173C7.3408 42.1128 6.83917 41.9024 6.46835 41.5316C6.09754 41.1608 5.8872 40.6592 5.88264 40.1348C5.87809 39.6104 6.07968 39.1052 6.44399 38.728L12.686 32.486L17.506 27.666C17.3985 27.4427 17.305 27.2129 17.226 26.978L16.446 24.632C16.2918 24.1325 16.3393 23.5925 16.5783 23.1276C16.8174 22.6627 17.2289 22.3098 17.7249 22.1446C18.2208 21.9794 18.7617 22.0149 19.2318 22.2436C19.7019 22.4722 20.0638 22.8758 20.24 23.368L20.632 24.54L23.126 22.046L22.102 18.976C21.9341 18.4726 21.9731 17.9232 22.2103 17.4485C22.4475 16.9739 22.8636 16.6129 23.367 16.445C23.8704 16.2771 24.4198 16.3161 24.8945 16.5533C25.3691 16.7905 25.7301 17.2066 25.898 17.71L26.288 18.884L28.242 16.928C28.617 16.5531 29.1257 16.3424 29.656 16.3424C30.1863 16.3424 30.6949 16.5531 31.07 16.928H31.072Z" fill="#54BC42"/>
</svg>
