<svg width="48" height="48" viewBox="0 0 48 48" fill="none" xmlns="http://www.w3.org/2000/svg">
<path d="M34 14C32.034 13.9994 30.1115 14.5782 28.4727 15.6642C26.8339 16.7502 25.5516 18.2952 24.786 20.106C23.926 22.14 25.792 24 28 24H40C42.21 24 44.074 22.14 43.214 20.106C42.4485 18.2952 41.1661 16.7502 39.5273 15.6642C37.8885 14.5782 35.966 13.9994 34 14ZM34 34C34.0007 32.034 33.4218 30.1115 32.3358 28.4727C31.2498 26.8339 29.7048 25.5516 27.894 24.786C25.86 23.926 24 25.792 24 28V40C24 42.21 25.86 44.074 27.894 43.214C29.7048 42.4485 31.2498 41.1661 32.3358 39.5273C33.4218 37.8885 34.0007 35.966 34 34ZM14 34C15.966 34.0007 17.8885 33.4218 19.5273 32.3358C21.1661 31.2498 22.4485 29.7048 23.214 27.894C24.074 25.86 22.208 24 20 24H8.00001C5.79001 24 3.92601 25.86 4.78601 27.894C5.55157 29.7048 6.83389 31.2498 8.47269 32.3358C10.1115 33.4218 12.034 34.0007 14 34ZM14 14C13.9994 15.966 14.5782 17.8885 15.6642 19.5273C16.7502 21.1661 18.2952 22.4485 20.106 23.214C22.14 24.074 24 22.208 24 20V8.00001C24 5.79001 22.14 3.92601 20.106 4.78601C18.2952 5.55157 16.7502 6.83389 15.6642 8.47269C14.5782 10.1115 13.9994 12.034 14 14Z" fill="#DB483B" stroke="#DB483B" stroke-width="4" stroke-linecap="round" stroke-linejoin="round"/>
</svg>
