<svg width="48" height="48" viewBox="0 0 48 48" fill="none" xmlns="http://www.w3.org/2000/svg">
<path d="M24 36C30.6274 36 36 30.6274 36 24C36 17.3726 30.6274 12 24 12C17.3726 12 12 17.3726 12 24C12 30.6274 17.3726 36 24 36Z" stroke="#54BC42" stroke-width="4" stroke-linecap="round" stroke-linejoin="round"/>
<path d="M24 12C26.2091 12 28 10.2091 28 8C28 5.79086 26.2091 4 24 4C21.7909 4 20 5.79086 20 8C20 10.2091 21.7909 12 24 12Z" fill="#54BC42" stroke="#54BC42" stroke-width="4" stroke-linecap="round" stroke-linejoin="round"/>
<path d="M38 20C40.2091 20 42 18.2091 42 16C42 13.7909 40.2091 12 38 12C35.7909 12 34 13.7909 34 16C34 18.2091 35.7909 20 38 20Z" fill="#54BC42" stroke="#54BC42" stroke-width="4" stroke-linecap="round" stroke-linejoin="round"/>
<path d="M10 20C12.2091 20 14 18.2091 14 16C14 13.7909 12.2091 12 10 12C7.79086 12 6 13.7909 6 16C6 18.2091 7.79086 20 10 20Z" fill="#54BC42" stroke="#54BC42" stroke-width="4" stroke-linecap="round" stroke-linejoin="round"/>
<path d="M10 36C12.2091 36 14 34.2091 14 32C14 29.7909 12.2091 28 10 28C7.79086 28 6 29.7909 6 32C6 34.2091 7.79086 36 10 36Z" fill="#54BC42" stroke="#54BC42" stroke-width="4" stroke-linecap="round" stroke-linejoin="round"/>
<path d="M38 36C40.2091 36 42 34.2091 42 32C42 29.7909 40.2091 28 38 28C35.7909 28 34 29.7909 34 32C34 34.2091 35.7909 36 38 36Z" fill="#54BC42" stroke="#54BC42" stroke-width="4" stroke-linecap="round" stroke-linejoin="round"/>
<path d="M16 44L24 24L32 44" stroke="#54BC42" stroke-width="4" stroke-linecap="round" stroke-linejoin="round"/>
</svg>
