<svg width="48" height="48" viewBox="0 0 48 48" fill="none" xmlns="http://www.w3.org/2000/svg">
<path fill-rule="evenodd" clip-rule="evenodd" d="M2 24C2 11.85 11.85 2 24 2C36.15 2 46 11.85 46 24C46 36.15 36.15 46 24 46C11.85 46 2 36.15 2 24ZM26 12C26 11.4696 25.7893 10.9609 25.4142 10.5858C25.0391 10.2107 24.5304 10 24 10C23.4696 10 22.9609 10.2107 22.5858 10.5858C22.2107 10.9609 22 11.4696 22 12V14C20.4087 14 18.8826 14.6321 17.7574 15.7574C16.6321 16.8826 16 18.4087 16 20C16 21.5913 16.6321 23.1174 17.7574 24.2426C18.8826 25.3679 20.4087 26 22 26H26C26.5304 26 27.0391 26.2107 27.4142 26.5858C27.7893 26.9609 28 27.4696 28 28C28 28.5304 27.7893 29.0391 27.4142 29.4142C27.0391 29.7893 26.5304 30 26 30H18C17.4696 30 16.9609 30.2107 16.5858 30.5858C16.2107 30.9609 16 31.4696 16 32C16 32.5304 16.2107 33.0391 16.5858 33.4142C16.9609 33.7893 17.4696 34 18 34H22V36C22 36.5304 22.2107 37.0391 22.5858 37.4142C22.9609 37.7893 23.4696 38 24 38C24.5304 38 25.0391 37.7893 25.4142 37.4142C25.7893 37.0391 26 36.5304 26 36V34C26.7879 34 27.5681 33.8448 28.2961 33.5433C29.0241 33.2417 29.6855 32.7998 30.2426 32.2426C30.7998 31.6855 31.2417 31.0241 31.5433 30.2961C31.8448 29.5681 32 28.7879 32 28C32 27.2121 31.8448 26.4319 31.5433 25.7039C31.2417 24.9759 30.7998 24.3145 30.2426 23.7574C29.6855 23.2002 29.0241 22.7583 28.2961 22.4567C27.5681 22.1552 26.7879 22 26 22H22C21.4696 22 20.9609 21.7893 20.5858 21.4142C20.2107 21.0391 20 20.5304 20 20C20 19.4696 20.2107 18.9609 20.5858 18.5858C20.9609 18.2107 21.4696 18 22 18H30C30.5304 18 31.0391 17.7893 31.4142 17.4142C31.7893 17.0391 32 16.5304 32 16C32 15.4696 31.7893 14.9609 31.4142 14.5858C31.0391 14.2107 30.5304 14 30 14H26V12Z" fill="#FECE02"/>
</svg>
