<svg width="48" height="48" viewBox="0 0 48 48" fill="none" xmlns="http://www.w3.org/2000/svg">
<path d="M30 30H32C34.1218 30 36.1566 30.8429 37.6569 32.3431C39.1572 33.8434 40 35.8783 40 38C40 39.0609 39.5786 40.0783 38.8284 40.8284C38.0783 41.5786 37.0609 42 36 42H16.264C15.5733 42 14.8943 41.8211 14.2932 41.4808C13.6921 41.1405 13.1894 40.6503 12.834 40.058L8.44602 32.744C8.1607 32.2687 8.00664 31.7262 7.99958 31.1719C7.99253 30.6175 8.13273 30.0713 8.40586 29.5889C8.679 29.1065 9.07528 28.7052 9.55423 28.426C10.0332 28.1469 10.5777 27.9999 11.132 28H12C12.621 28 13.2335 28.1446 13.7889 28.4223C14.3443 28.7 14.8274 29.1032 15.2 29.6L20 36V18C20 16.9391 20.4214 15.9217 21.1716 15.1716C21.9217 14.4214 22.9392 14 24 14C25.0609 14 26.0783 14.4214 26.8284 15.1716C27.5786 15.9217 28 16.9391 28 18V28C28 28.5304 28.2107 29.0391 28.5858 29.4142C28.9609 29.7893 29.4696 30 30 30Z" fill="#016EEF" stroke="#016EEF" stroke-width="4" stroke-linecap="round" stroke-linejoin="round"/>
<path d="M24 8V6M36 20H38M10 20H12M14.686 10.686L13.272 9.272M33.314 10.686L34.728 9.272" stroke="#016EEF" stroke-width="4" stroke-linecap="round" stroke-linejoin="round"/>
</svg>
