<svg width="48" height="48" viewBox="0 0 48 48" fill="none" xmlns="http://www.w3.org/2000/svg">
<path fill-rule="evenodd" clip-rule="evenodd" d="M24 42C26.3638 42 28.7044 41.5344 30.8883 40.6298C33.0722 39.7253 35.0565 38.3994 36.7279 36.7279C38.3994 35.0565 39.7253 33.0722 40.6298 30.8883C41.5344 28.7044 42 26.3638 42 24C42 21.6362 41.5344 19.2956 40.6298 17.1117C39.7253 14.9278 38.3994 12.9435 36.7279 11.2721C35.0565 9.60062 33.0722 8.27475 30.8883 7.37017C28.7044 6.46558 26.3638 6 24 6C19.2261 6 14.6477 7.89642 11.2721 11.2721C7.89642 14.6477 6 19.2261 6 24C6 28.7739 7.89642 33.3523 11.2721 36.7279C14.6477 40.1036 19.2261 42 24 42ZM22.586 16.586C22.9613 16.211 23.4702 16.0004 24.0007 16.0006C24.5312 16.0008 25.04 16.2117 25.415 16.587C25.79 16.9623 26.0006 17.4712 26.0004 18.0017C26.0002 18.5322 25.7893 19.041 25.414 19.416L22.828 22H30C30.5304 22 31.0391 22.2107 31.4142 22.5858C31.7893 22.9609 32 23.4696 32 24C32 24.5304 31.7893 25.0391 31.4142 25.4142C31.0391 25.7893 30.5304 26 30 26H22.83L25.414 28.586C25.7783 28.9632 25.9799 29.4684 25.9753 29.9928C25.9708 30.5172 25.7605 31.0188 25.3896 31.3896C25.0188 31.7605 24.5172 31.9708 23.9928 31.9753C23.4684 31.9799 22.9632 31.7783 22.586 31.414L16.586 25.414C16.4 25.2283 16.2525 25.0077 16.1519 24.7649C16.0512 24.5221 15.9994 24.2618 15.9994 23.999C15.9994 23.7362 16.0512 23.4759 16.1519 23.2331C16.2525 22.9903 16.4 22.7697 16.586 22.584L22.586 16.584V16.586Z" fill="#54BC42"/>
</svg>
