<svg width="48" height="48" viewBox="0 0 48 48" fill="none" xmlns="http://www.w3.org/2000/svg">
<path d="M9.89998 32.528C9.89998 32.528 6.49398 37.608 8.48598 39.598C10.476 41.59 15.556 38.184 15.556 38.184" stroke="#016EEF" stroke-width="4" stroke-linecap="round" stroke-linejoin="round"/>
<path fill-rule="evenodd" clip-rule="evenodd" d="M41.012 7.07201C41.2508 7.31094 41.4252 7.60646 41.5189 7.93101C41.6127 8.25556 41.6226 8.59856 41.548 8.92801L40.914 11.732C40.1628 15.0459 38.4889 18.0795 36.086 20.482L26.798 29.77C28.852 32.314 29.518 34.73 28.998 37.034C28.456 39.434 26.678 41.206 25.574 42.308L25.454 42.428C25.239 42.6427 24.978 42.8055 24.6907 42.9042C24.4034 43.0029 24.0974 43.0349 23.7959 42.9977C23.4944 42.9605 23.2053 42.8551 22.9506 42.6895C22.6959 42.5239 22.4823 42.3025 22.326 42.042L18.34 35.392C18.256 35.2523 18.1553 35.1233 18.04 35.008L12.9 29.872L11.38 28.96L18.298 21.274L18.312 21.284L27.6 12C30.003 9.59672 33.0374 7.92284 36.352 7.17201L39.156 6.53601C39.4856 6.46159 39.8287 6.4719 40.1533 6.56598C40.4778 6.66006 40.7733 6.83285 41.012 7.07201ZM16.644 20.124C14.706 18.994 12.844 18.68 11.05 19.084C8.64997 19.628 6.87797 21.404 5.77597 22.51L5.65597 22.628C5.44132 22.843 5.27846 23.104 5.17975 23.3913C5.08104 23.6786 5.04908 23.9846 5.08628 24.2861C5.12349 24.5876 5.22889 24.8767 5.39448 25.1314C5.56007 25.3861 5.7815 25.5997 6.04197 25.756L9.63397 27.912L16.644 20.124Z" fill="#016EEF"/>
</svg>
